<?xml version="1.0" encoding="utf-8"?>
<!-- Generator: Adobe Illustrator 24.3.0, SVG Export Plug-In . SVG Version: 6.00 Build 0)  -->
<svg version="1.1" id="Layer_1" xmlns="http://www.w3.org/2000/svg" xmlns:xlink="http://www.w3.org/1999/xlink" x="0px" y="0px"
	 viewBox="0 0 1598.1 1790" style="enable-background:new 0 0 1598.1 1790;" xml:space="preserve">
<style type="text/css">
	.st0{fill:#162A47;}
	.st1{clip-path:url(#SVGID_2_);}
	.st2{fill:#1C1B1A;}
	.st3{fill:#C69000;}
	.st4{fill:#FFFFFF;}
	.st5{enable-background:new    ;}
	.st6{fill:#959696;}
</style>
<rect x="0" y="1304.9" class="st0" width="1598.1" height="351.4"/>
<g>
	<g>
		<g>
			<g>
				<g>
					<defs>
						<rect id="SVGID_1_" x="70.1" y="7" width="1157.1" height="1649.3"/>
					</defs>
					<clipPath id="SVGID_2_">
						<use xlink:href="#SVGID_1_"  style="overflow:visible;"/>
					</clipPath>
					<g class="st1">
						<path class="st2" d="M451.6,1010.8c0,22.3-3.3,39.3-37.2,39.3c-33.7,0-39-16.3-39-39.3v-54.3c0-12.2-5.2-13.4-14.2-13.4v-3.2
							h42.9v3.2c-8.8,0-14.2,1.1-14.2,13.4v54.3c0,16.6,3.9,32.9,25.1,32.9c23.5,0,27.2-13.5,27.2-32.9v-54.3
							c0-12.2-5.4-13.4-14.2-13.4v-3.2h37.7v3.2c-9,0-14.2,1.1-14.2,13.4L451.6,1010.8z"/>
						<path class="st2" d="M541.8,1045.6c-8,2.9-17.1,4.4-29.2,4.4c-32.6,0-48.3-24.8-48.3-59.5c0-30.2,9.8-52.3,44.7-52.3
							c10.6,0.1,21.1,1.6,31.3,4.5l1.5,25.6h-4.1c-2.1-9.1-8.6-23.8-28.9-23.8c-26.2,0-28.4,27.9-28.4,44.7c0,21,4.6,53.5,40.3,53.5
							c7.2,0.1,14.4-1.3,21-4.1L541.8,1045.6z"/>
						<path class="st2" d="M629.4,963.3c-1.5-8.6-8-18.8-25.4-18.8c-10.9,0-20.5,7-20.5,17.8c0,14.5,19.4,19.2,33.6,27.5
							c12.9,7.5,21.5,14.2,21.5,29.7c0,20.7-18,30.5-40.3,30.5c-11.1,0-24-2.4-28-3.1l-1.2-23h4.1c1.3,8.7,9,18.8,26.4,18.8
							c14.3,0,23.6-9.3,23.6-20.5c0-17.6-27.1-23-42.2-34.6c-7.2-5.5-10.6-11.4-10.6-21.8c0-19.6,16.2-27.5,36.7-27.5
							c8.5,0,17,0.9,25.3,2.8l1.1,22.3L629.4,963.3z"/>
						<path class="st2" d="M683.7,1016.2c-6.8,0.2-25.4,1.5-25.4,15c0,7.5,4.9,12.6,9.9,12.6c9.4,0,15.5-9.1,15.5-19V1016.2z
							 M705.1,1048.6c-3.5,0.9-7,1.3-10.6,1.3c-8.4,0-10.9-4.3-10.9-10.6h-0.3c-4.5,6.5-10.7,10.6-20.6,10.6s-17.4-7-17.4-16.4
							c0-21,27.3-21,38.3-22.1v-5.5c0-10.2-0.2-20.9-12.3-20.9c-9,0-10.2,3.8-10.2,8.4c0,6-4.3,7.5-6.8,7.5c-3.9,0-7-2.6-7-6.5
							c0-9.4,14.1-14.2,24.1-14.2c19.9,0,23.5,9.6,23.5,23v36c0,5.1,1.7,6.8,6.2,6.8c1.3,0,2.6-0.2,3.9-0.6L705.1,1048.6z"/>
						<path class="st2" d="M708.3,1045.9c6.1,0,11-1.3,11-10.7v-39.6c0-8.7-6.8-9.1-11-9.4v-2.5l22.3-3.5v19.1h0.3
							c2-5.4,8.5-19.1,22.9-19.1c15.4,0,16.8,8.4,16.8,21.9v33.1c0,9.4,4.9,10.7,11,10.7v2.5h-33.4v-2.5c6.1,0,11-1.3,11-10.7v-29.9
							c0-12.5-0.1-18.1-9.7-18.1c-8.5,0-19,16.4-19,30.2v17.8c0,9.4,4.9,10.7,11,10.7v2.5h-33.3L708.3,1045.9z"/>
						<path class="st2" d="M827,1028.4c0,11.9,1.3,13.7,9.5,13.7c28,0,39.6-15,39.6-47.8c0-30-8.6-48.1-39.6-48.1
							c-8.2,0-9.5,1-9.5,13.7V1028.4z M798.3,1045.2c8.8,0,14.2-1.1,14.2-13.4v-75.3c0-12.2-5.4-13.4-14.2-13.4v-3.2h38.2
							c27.1,0,55.8,5.9,55.8,54.5c0,48.4-30.2,54.1-55.8,54.1h-38.2V1045.2z"/>
						<path class="st2" d="M906.2,958.6c0-4.6,3.7-8.3,8.3-8.2c4.6,0,8.3,3.7,8.2,8.3c0,4.6-3.7,8.3-8.3,8.2
							c-4.5,0.1-8.2-3.6-8.3-8.1C906.2,958.8,906.2,958.7,906.2,958.6 M898.2,1045.9c6.1,0,11-1.3,11-10.7v-39.6
							c0-8.7-6.7-9.1-11-9.4v-2.5l22.3-3.5v55c0,9.4,4.9,10.7,11,10.7v2.5h-33.4L898.2,1045.9z"/>
						<path class="st2" d="M973,1002.7c0-7.7-2.6-17.7-13.8-17.7s-15.5,12.3-15.5,17.7H973z M984,1047.2c-3.5,1.3-8.4,2.6-17.3,2.6
							c-22.5,0-35.1-12.3-35.1-36.7c0-21.2,8.6-32.9,29.4-32.9c13,0,24.8,7.2,24.8,24.1v3.2h-42.2c0,12.2,5.9,37,30.2,37
							c3.3,0,7.2-0.4,10.2-1.9V1047.2z"/>
						<path class="st2" d="M1020.6,1021.9c12.2,0,13.8-9.6,13.8-17.3c0-10.9-3.8-19.6-14.2-19.6c-11.5,0-13.6,8.4-13.6,16.8
							C1006.5,1012.9,1010.1,1021.9,1020.6,1021.9 M1008,1047.1c-2.9,2.2-7,4.6-7,11.2c0,8.6,7.7,16,20.3,16
							c13.2,0,25.4-6.8,25.4-17.3c0-7.4-6.1-9.9-13.3-9.9L1008,1047.1z M1033.1,1036.8c6.9,0,23.1,0.3,23.1,16.4
							c0,16.5-16.2,25.8-35.5,25.8c-14.2,0-29-5.4-29-18.4c0-9,6.7-12.9,11.3-15.2c-2.5-1.4-6.2-4.2-6.2-10.3
							c0-5.4,4.7-10.9,6.2-12.6c-3.3-2.8-8.4-7.1-8.4-19.4c0-18.7,13.6-22.8,27.4-22.8c6.7,0,10.3,1.2,15,3.6
							c2.3-5.5,5.8-15.5,14.6-15.5c4.1,0,7,2.6,7,7c0,3.9-2.5,6.5-6.8,6.5c-3.8,0-4.7-2-6.5-2c-3.2,0-4.5,4.2-5.2,6.5
							c1.7,1.9,6.5,7.2,6.5,17.4c0,14.7-9.1,22.9-26.5,22.9c-5.8,0-10-0.7-13.2-2.2c-1.6,1.8-2.5,4.1-2.6,6.5
							c0,5.8,7.2,5.8,11.9,5.8L1033.1,1036.8z"/>
						<path class="st2" d="M1086.6,1045.1c14.5,0,17.4-18,17.4-30s-2.9-30-17.4-30s-17.4,18-17.4,30S1072.1,1045.1,1086.6,1045.1
							 M1056.3,1015.1c0-21.8,11.7-34.8,30.3-34.8s30.3,13,30.3,34.8c0,21.8-11.7,34.8-30.3,34.8S1056.3,1036.8,1056.3,1015.1"/>
						<path class="st2" d="M984.2,1073.4H361.3v3.7h626.4C986.4,1076,985.2,1074.8,984.2,1073.4"/>
						<path class="st2" d="M1115.7,1073.4h-57.3c-1.3,1.3-2.8,2.6-4.3,3.7h61.6L1115.7,1073.4L1115.7,1073.4z"/>
						<path class="st0" d="M451.6,545.2c0,22.3-3.3,39.3-37.2,39.3c-33.7,0-39-16.3-39-39.3v-54.3c0-12.2-5.2-13.4-14.2-13.4v-3.2
							h42.9v3.2c-8.8,0-14.2,1.1-14.2,13.4v54.3c0,16.6,3.9,32.9,25.1,32.9c23.5,0,27.2-13.5,27.2-32.9v-54.3
							c0-12.2-5.4-13.4-14.2-13.4v-3.2h37.7v3.2c-9,0-14.2,1.1-14.2,13.4L451.6,545.2z"/>
						<path class="st0" d="M541.8,580c-8,2.9-17.1,4.4-29.2,4.4c-32.6,0-48.3-24.8-48.3-59.5c0-30.2,9.8-52.3,44.7-52.3
							c10.6,0.1,21.1,1.6,31.3,4.5l1.5,25.6h-4.1c-2.1-9.1-8.6-23.7-28.9-23.7c-26.2,0-28.4,27.9-28.4,44.7c0,21,4.6,53.5,40.3,53.5
							c7.2,0.1,14.4-1.3,21-4.1L541.8,580z"/>
						<path class="st0" d="M629.4,497.7c-1.5-8.6-8-18.8-25.4-18.8c-10.9,0-20.5,7-20.5,17.8c0,14.5,19.4,19.2,33.6,27.5
							c12.9,7.5,21.5,14.2,21.5,29.7c0,20.7-18,30.5-40.3,30.5c-11.1,0-24-2.5-28-3.1l-1.2-23h4.1c1.3,8.7,9,18.8,26.4,18.8
							c14.3,0,23.6-9.3,23.6-20.5c0-17.6-27.1-23-42.2-34.6c-7.2-5.5-10.6-11.4-10.6-21.9c0-19.6,16.2-27.5,36.7-27.5
							c8.5,0,17,0.9,25.3,2.8l1.1,22.3L629.4,497.7L629.4,497.7z"/>
						<path class="st0" d="M683.7,550.6c-6.8,0.2-25.4,1.5-25.4,15c0,7.5,4.9,12.6,9.9,12.6c9.4,0,15.5-9.1,15.5-19V550.6z
							 M705.1,583c-3.5,0.9-7,1.3-10.6,1.3c-8.4,0-10.9-4.3-10.9-10.6h-0.3c-4.5,6.5-10.7,10.6-20.6,10.6s-17.4-7-17.4-16.4
							c0-21,27.3-21,38.3-22.1v-5.5c0-10.2-0.2-20.9-12.3-20.9c-9,0-10.2,3.8-10.2,8.4c0,6-4.3,7.5-6.8,7.5c-3.9,0-7-2.6-7-6.5
							c0-9.4,14.1-14.2,24.1-14.2c19.9,0,23.5,9.6,23.5,23.1v36c0,5.1,1.7,6.8,6.2,6.8c1.3,0,2.6-0.2,3.9-0.6L705.1,583z"/>
						<path class="st0" d="M708.3,580.3c6.1,0,11-1.3,11-10.7V530c0-8.7-6.8-9.1-11-9.4v-2.5l22.3-3.5v19.1h0.3
							c2-5.4,8.5-19.1,22.9-19.1c15.4,0,16.8,8.4,16.8,21.9v33.1c0,9.4,4.9,10.7,11,10.7v2.5h-33.4v-2.5c6.1,0,11-1.3,11-10.7v-29.9
							c0-12.5-0.1-18.1-9.7-18.1c-8.5,0-19,16.4-19,30.2v17.8c0,9.4,4.9,10.7,11,10.7v2.5h-33.3L708.3,580.3z"/>
						<path class="st0" d="M827,562.8c0,11.9,1.3,13.7,9.5,13.7c28,0,39.6-15,39.6-47.8c0-30-8.6-48.1-39.6-48.1
							c-8.2,0-9.5,1-9.5,13.7V562.8z M798.3,579.6c8.8,0,14.2-1.1,14.2-13.4v-75.3c0-12.2-5.4-13.4-14.2-13.4v-3.2h38.2
							c27.1,0,55.8,5.9,55.8,54.5c0,48.4-30.2,54.1-55.8,54.1h-38.2V579.6z"/>
						<path class="st0" d="M906.2,493c0-4.6,3.7-8.3,8.3-8.2s8.3,3.7,8.2,8.3s-3.7,8.3-8.3,8.2c-4.5,0.1-8.2-3.6-8.3-8.1
							C906.2,493.1,906.2,493.1,906.2,493 M898.2,580.3c6.1,0,11-1.3,11-10.7V530c0-8.7-6.7-9.1-11-9.4v-2.5l22.3-3.5v55
							c0,9.4,4.9,10.7,11,10.7v2.5h-33.4L898.2,580.3z"/>
						<path class="st0" d="M973,537.1c0-7.7-2.6-17.7-13.8-17.7s-15.5,12.3-15.5,17.7H973z M984,581.7c-3.5,1.3-8.4,2.6-17.3,2.6
							c-22.5,0-35.1-12.3-35.1-36.7c0-21.2,8.6-32.9,29.4-32.9c13,0,24.8,7.2,24.8,24.1v3.2h-42.2c0,12.2,5.9,37,30.2,37
							c3.3,0,7.2-0.4,10.2-1.9V581.7z"/>
						<path class="st0" d="M1020.6,556.3c12.2,0,13.8-9.6,13.8-17.3c0-10.9-3.8-19.6-14.2-19.6c-11.5,0-13.6,8.4-13.6,16.8
							C1006.5,547.3,1010.1,556.3,1020.6,556.3 M1008,581.5c-2.9,2.2-7,4.6-7,11.2c0,8.6,7.7,16,20.3,16c13.2,0,25.4-6.8,25.4-17.3
							c0-7.4-6.1-9.9-13.3-9.9H1008z M1033.1,571.2c6.9,0,23.1,0.3,23.1,16.4c0,16.5-16.2,25.8-35.5,25.8c-14.2,0-29-5.4-29-18.4
							c0-9,6.7-12.9,11.3-15.2c-2.5-1.4-6.2-4.2-6.2-10.3c0-5.4,4.7-10.9,6.2-12.6c-3.3-2.8-8.4-7.1-8.4-19.4
							c0-18.7,13.6-22.8,27.4-22.8c6.7,0,10.3,1.1,15,3.6c2.3-5.5,5.8-15.5,14.6-15.5c4.1,0,7,2.6,7,7c0,3.9-2.5,6.5-6.8,6.5
							c-3.8,0-4.7-2-6.5-2c-3.2,0-4.5,4.2-5.2,6.5c1.7,1.9,6.5,7.2,6.5,17.4c0,14.7-9.1,22.9-26.5,22.9c-5.8,0-10-0.7-13.2-2.2
							c-1.6,1.8-2.5,4.1-2.6,6.5c0,5.8,7.2,5.8,11.9,5.8H1033.1z"/>
						<path class="st0" d="M1086.6,579.5c14.5,0,17.4-18,17.4-30s-2.9-30-17.4-30s-17.4,18-17.4,30S1072.1,579.5,1086.6,579.5
							 M1056.3,549.5c0-21.8,11.7-34.8,30.3-34.8s30.3,13,30.3,34.8s-11.7,34.8-30.3,34.8S1056.3,571.2,1056.3,549.5"/>
						<path class="st0" d="M984.2,607.8H361.3v3.7h626.4C986.4,610.4,985.2,609.2,984.2,607.8"/>
						<path class="st0" d="M1115.7,607.8h-57.3c-1.3,1.3-2.8,2.6-4.3,3.7h61.6L1115.7,607.8L1115.7,607.8z"/>
						<path class="st0" d="M451.6,79.6c0,22.3-3.3,39.3-37.2,39.3c-33.7,0-39-16.3-39-39.3V25.3c0-12.2-5.2-13.4-14.2-13.4V8.6h42.9
							v3.2C395.4,11.9,390,13,390,25.3v54.3c0,16.6,3.9,32.9,25.1,32.9c23.5,0,27.2-13.5,27.2-32.9V25.3c0-12.3-5.3-13.4-14.2-13.4
							V8.6h37.7v3.2c-9,0-14.2,1.1-14.2,13.4V79.6z"/>
						<path class="st0" d="M541.8,114.4c-8,2.9-17.1,4.4-29.2,4.4c-32.6,0-48.3-24.8-48.3-59.5C464.3,29.2,474.1,7,509,7
							c10.6,0.1,21.1,1.7,31.3,4.6l1.5,25.6h-4.1c-2.1-9.2-8.6-23.8-28.9-23.8c-26.2,0-28.4,27.9-28.4,44.7c0,21,4.6,53.5,40.3,53.5
							c7.2,0.1,14.4-1.3,21-4.1L541.8,114.4z"/>
						<path class="st0" d="M629.4,32.1c-1.5-8.6-8-18.8-25.4-18.8c-10.9,0-20.5,7-20.5,17.8c0,14.5,19.4,19.2,33.6,27.6
							c12.9,7.5,21.5,14.2,21.5,29.7c0,20.7-18,30.5-40.3,30.5c-11.1,0-24-2.4-28-3.1l-1.2-23h4.1c1.3,8.7,9,18.8,26.4,18.8
							c14.3,0,23.6-9.3,23.6-20.5c0-17.6-27.1-23-42.2-34.6c-7.2-5.5-10.6-11.4-10.6-21.9C570.3,15,586.5,7,607,7
							c8.5,0,17,0.9,25.3,2.8l1.1,22.3C633.4,32.1,629.4,32.1,629.4,32.1z"/>
						<path class="st0" d="M683.7,85c-6.8,0.2-25.4,1.5-25.4,15c0,7.5,4.9,12.6,9.9,12.6c9.4,0,15.5-9.1,15.5-19V85z M705.1,117.3
							c-3.5,0.9-7,1.3-10.6,1.3c-8.4,0-10.9-4.3-10.9-10.6h-0.3c-4.5,6.5-10.7,10.6-20.6,10.6s-17.4-7-17.4-16.4
							c0-21,27.3-21,38.3-22.1v-5.5c0-10.2-0.2-20.9-12.3-20.9c-9,0-10.2,3.8-10.2,8.4c0,6-4.3,7.5-6.8,7.5c-3.9,0-7-2.6-7-6.5
							c0-9.4,14.1-14.2,24.1-14.2c19.9,0,23.5,9.6,23.5,23v36c0,5.1,1.7,6.8,6.2,6.8c1.3,0,2.6-0.2,3.9-0.6L705.1,117.3z"/>
						<path class="st0" d="M708.3,114.8c6.1,0,11-1.3,11-10.7V64.4c0-8.7-6.8-9.1-11-9.4v-2.5l22.3-3.5v19.1h0.3
							c2-5.4,8.5-19.1,22.9-19.1c15.4,0,16.8,8.4,16.8,21.9v33c0,9.4,4.9,10.7,11,10.7v2.5h-33.4v-2.5c6.1,0,11-1.3,11-10.7V74.2
							c0-12.5-0.1-18.1-9.7-18.1c-8.5,0-19,16.4-19,30.2V104c0,9.4,4.9,10.7,11,10.7v2.5h-33.3L708.3,114.8z"/>
						<path class="st0" d="M827,97.2c0,11.9,1.3,13.7,9.5,13.7c28,0,39.6-15,39.6-47.8c0-30-8.6-48.1-39.6-48.1
							c-8.2,0-9.5,1-9.5,13.7V97.2z M798.3,114c8.8,0,14.2-1.1,14.2-13.4V25.3c0-12.2-5.4-13.4-14.2-13.4V8.6h38.2
							c27.1,0,55.8,5.9,55.8,54.5c0,48.4-30.2,54.1-55.8,54.1h-38.2V114z"/>
						<path class="st0" d="M906.2,27.4c0-4.6,3.7-8.3,8.3-8.2c4.6,0.1,8.3,3.7,8.2,8.3c0,4.6-3.7,8.3-8.3,8.2
							c-4.5,0-8.2-3.6-8.3-8.1C906.2,27.6,906.2,27.5,906.2,27.4 M898.2,114.8c6.1,0,11-1.3,11-10.7V64.4c0-8.7-6.7-9.1-11-9.4v-2.5
							l22.3-3.5v55c0,9.4,4.9,10.7,11,10.7v2.5h-33.4L898.2,114.8z"/>
						<path class="st0" d="M973,71.5c0-7.7-2.6-17.7-13.8-17.7s-15.5,12.3-15.5,17.7H973z M984,116.1c-3.5,1.3-8.4,2.6-17.3,2.6
							c-22.5,0-35.1-12.3-35.1-36.7c0-21.2,8.6-32.9,29.4-32.9c13,0,24.8,7.2,24.8,24.1v3.2h-42.2c0,12.2,5.9,37,30.2,37
							c3.3,0,7.2-0.4,10.2-1.9V116.1z"/>
						<path class="st0" d="M1020.6,90.7c12.2,0,13.8-9.6,13.8-17.3c0-10.9-3.8-19.6-14.2-19.6c-11.5,0-13.6,8.4-13.6,16.8
							C1006.5,81.7,1010.1,90.7,1020.6,90.7 M1008,115.9c-2.9,2.2-7,4.6-7,11.2c0,8.6,7.7,16,20.3,16c13.2,0,25.4-6.8,25.4-17.3
							c0-7.4-6.1-9.9-13.3-9.9H1008z M1033.1,105.6c6.9,0,23.1,0.3,23.1,16.4c0,16.5-16.2,25.8-35.5,25.8c-14.2,0-29-5.4-29-18.4
							c0-9,6.7-12.9,11.3-15.2c-2.5-1.4-6.2-4.2-6.2-10.3c0-5.4,4.7-10.9,6.2-12.6c-3.3-2.8-8.4-7.1-8.4-19.4
							c0-18.7,13.6-22.8,27.4-22.8c6.7,0,10.3,1.2,15,3.6c2.3-5.5,5.8-15.5,14.6-15.5c4.1,0,7,2.6,7,7c0,3.9-2.5,6.5-6.8,6.5
							c-3.8,0-4.7-2-6.5-2c-3.2,0-4.5,4.2-5.2,6.5c1.7,1.9,6.5,7.2,6.5,17.4c0,14.7-9.1,22.9-26.5,22.9c-5.8,0-10-0.7-13.2-2.2
							c-1.6,1.8-2.5,4.1-2.6,6.5c0,5.8,7.2,5.8,11.9,5.8L1033.1,105.6z"/>
						<path class="st0" d="M1086.6,113.9c14.5,0,17.4-18,17.4-30s-2.9-30-17.4-30s-17.4,18-17.4,30S1072.1,113.9,1086.6,113.9
							 M1056.3,83.9c0-21.8,11.7-34.8,30.3-34.8s30.3,13,30.3,34.8s-11.7,34.8-30.3,34.8S1056.3,105.6,1056.3,83.9"/>
						<path class="st3" d="M984.2,142.2H361.3v3.7h626.4C986.4,144.8,985.2,143.6,984.2,142.2"/>
						<path class="st3" d="M1115.7,142.2h-57.3c-1.3,1.3-2.8,2.6-4.3,3.7h61.6L1115.7,142.2L1115.7,142.2z"/>
						<path class="st4" d="M451.6,1476.3c0,22.3-3.3,39.3-37.2,39.3c-33.7,0-39-16.3-39-39.3V1422c0-12.2-5.2-13.4-14.2-13.4v-3.2
							h42.9v3.2c-8.8,0-14.2,1.1-14.2,13.4v54.3c0,16.6,3.9,32.9,25.1,32.9c23.5,0,27.2-13.5,27.2-32.9V1422
							c0-12.2-5.4-13.4-14.2-13.4v-3.2h37.7v3.2c-9,0-14.2,1.1-14.2,13.4L451.6,1476.3z"/>
						<path class="st4" d="M541.8,1511.2c-8,2.9-17.1,4.4-29.2,4.4c-32.6,0-48.3-24.8-48.3-59.5c0-30.2,9.8-52.3,44.7-52.3
							c10.6,0.1,21.1,1.7,31.3,4.6l1.5,25.6h-4.1c-2.1-9.1-8.6-23.8-28.9-23.8c-26.2,0-28.4,27.9-28.4,44.7c0,21,4.6,53.5,40.3,53.5
							c7.2,0.1,14.4-1.3,21-4.1L541.8,1511.2z"/>
						<path class="st4" d="M629.4,1428.9c-1.5-8.6-8-18.8-25.4-18.8c-10.9,0-20.5,7-20.5,17.8c0,14.5,19.4,19.2,33.6,27.6
							c12.9,7.5,21.5,14.2,21.5,29.7c0,20.7-18,30.5-40.3,30.5c-11.1,0-24-2.4-28-3.1l-1.2-23h4.1c1.3,8.7,9,18.8,26.4,18.8
							c14.3,0,23.6-9.3,23.6-20.6c0-17.6-27.1-23-42.2-34.6c-7.2-5.5-10.6-11.4-10.6-21.8c0-19.6,16.2-27.6,36.7-27.6
							c8.5,0,17,0.9,25.3,2.8l1.1,22.3L629.4,1428.9L629.4,1428.9z"/>
						<path class="st4" d="M683.7,1481.8c-6.8,0.2-25.4,1.5-25.4,15c0,7.5,4.9,12.6,9.9,12.6c9.4,0,15.5-9.1,15.5-19V1481.8z
							 M705.1,1514.2c-3.5,0.9-7,1.3-10.6,1.3c-8.4,0-10.9-4.3-10.9-10.6h-0.3c-4.5,6.5-10.7,10.6-20.6,10.6s-17.4-7-17.4-16.4
							c0-21,27.3-21,38.3-22.1v-5.5c0-10.2-0.2-20.9-12.3-20.9c-9,0-10.2,3.8-10.2,8.4c0,5.9-4.3,7.6-6.8,7.6c-3.9,0-7-2.6-7-6.5
							c0-9.4,14.1-14.2,24.1-14.2c19.9,0,23.5,9.6,23.5,23.1v36c0,5.1,1.7,6.8,6.2,6.8c1.3,0,2.6-0.2,3.9-0.6L705.1,1514.2z"/>
						<path class="st4" d="M708.3,1511.6c6.1,0,11-1.3,11-10.7v-39.6c0-8.7-6.8-9.1-11-9.4v-2.5l22.3-3.5v19.1h0.3
							c2-5.4,8.5-19.1,22.9-19.1c15.4,0,16.8,8.4,16.8,21.9v33.1c0,9.4,4.9,10.7,11,10.7v2.4h-33.4v-2.5c6.1,0,11-1.3,11-10.7v-29.9
							c0-12.5-0.1-18.1-9.7-18.1c-8.5,0-19,16.4-19,30.2v17.8c0,9.4,4.9,10.7,11,10.7v2.5h-33.3L708.3,1511.6z"/>
						<path class="st4" d="M827,1494c0,11.9,1.3,13.7,9.5,13.7c28,0,39.6-15,39.6-47.8c0-30-8.6-48.1-39.6-48.1
							c-8.2,0-9.5,1-9.5,13.7V1494z M798.3,1510.8c8.8,0,14.2-1.1,14.2-13.4v-75.3c0-12.2-5.4-13.4-14.2-13.4v-3.2h38.2
							c27.1,0,55.8,5.9,55.8,54.5c0,48.4-30.2,54.1-55.8,54.1h-38.2V1510.8z"/>
						<path class="st4" d="M906.2,1424.2c0-4.6,3.7-8.3,8.3-8.2c4.6,0,8.3,3.7,8.2,8.3c0,4.6-3.7,8.3-8.3,8.2
							c-4.5,0.1-8.2-3.6-8.3-8.1C906.2,1424.4,906.2,1424.3,906.2,1424.2 M898.2,1511.5c6.1,0,11-1.3,11-10.7v-39.6
							c0-8.7-6.7-9.1-11-9.4v-2.5l22.3-3.5v55c0,9.4,4.9,10.7,11,10.7v2.4h-33.4L898.2,1511.5z"/>
						<path class="st4" d="M973,1468.3c0-7.7-2.6-17.7-13.8-17.7s-15.5,12.3-15.5,17.7H973z M984,1512.8c-3.5,1.3-8.4,2.6-17.3,2.6
							c-22.5,0-35.1-12.3-35.1-36.7c0-21.2,8.6-32.9,29.4-32.9c13,0,24.8,7.2,24.8,24.1v3.2h-42.2c0,12.2,5.9,37,30.2,37
							c3.3,0,7.2-0.4,10.2-1.9V1512.8z"/>
						<path class="st4" d="M1020.6,1487.5c12.2,0,13.8-9.6,13.8-17.3c0-10.9-3.8-19.6-14.2-19.6c-11.5,0-13.6,8.4-13.6,16.8
							C1006.5,1478.5,1010.1,1487.5,1020.6,1487.5 M1008,1512.7c-2.9,2.2-7,4.6-7,11.2c0,8.6,7.7,16,20.3,16
							c13.2,0,25.4-6.8,25.4-17.3c0-7.4-6.1-9.9-13.3-9.9L1008,1512.7z M1033.1,1502.4c6.9,0,23.1,0.3,23.1,16.4
							c0,16.5-16.2,25.8-35.5,25.8c-14.2,0-29-5.4-29-18.4c0-9,6.7-12.9,11.3-15.2c-2.5-1.4-6.2-4.2-6.2-10.3
							c0-5.4,4.7-10.9,6.2-12.6c-3.3-2.8-8.4-7.1-8.4-19.4c0-18.7,13.6-22.8,27.4-22.8c6.7,0,10.3,1.2,15,3.6
							c2.3-5.5,5.8-15.5,14.6-15.5c4.1,0,7,2.6,7,7c0,3.9-2.5,6.5-6.8,6.5c-3.8,0-4.7-2-6.5-2c-3.2,0-4.5,4.2-5.2,6.5
							c1.7,1.9,6.5,7.2,6.5,17.4c0,14.7-9.1,22.9-26.5,22.9c-5.8,0-10-0.7-13.2-2.2c-1.6,1.8-2.5,4.1-2.6,6.5
							c0,5.8,7.2,5.8,11.9,5.8L1033.1,1502.4z"/>
						<path class="st4" d="M1086.6,1510.7c14.5,0,17.4-18,17.4-30s-2.9-30-17.4-30s-17.4,18-17.4,30S1072.1,1510.7,1086.6,1510.7
							 M1056.3,1480.7c0-21.8,11.7-34.8,30.3-34.8s30.3,13,30.3,34.8s-11.7,34.8-30.3,34.8S1056.3,1502.4,1056.3,1480.7"/>
						<path class="st4" d="M984.2,1539H361.3v3.7h626.4C986.4,1541.6,985.2,1540.4,984.2,1539"/>
						<path class="st4" d="M1115.7,1539h-57.3c-1.3,1.3-2.8,2.6-4.3,3.7h61.6L1115.7,1539L1115.7,1539z"/>
					</g>
				</g>
			</g>
		</g>
	</g>
</g>
<g class="st5">
	<path class="st6" d="M8.5,71.5v11.2H4.9V54.3h9c6.5,0,9.5,3.3,9.5,8.6s-3,8.6-9.5,8.6H8.5z M8.5,68.4h5.2c4.5,0,6-2.3,6-5.5
		c0-3.2-1.5-5.5-6-5.5H8.5V68.4z"/>
</g>
<g class="st5">
	<path class="st6" d="M50.2,54.3H55l3.7,28.4h-3.5l-3-24.1l-7.7,24.1h-3.9L33,58.6l-3,24h-3.5l3.8-28.4h5L42.7,78L50.2,54.3z"/>
	<path class="st6" d="M78.5,60c-1.2-1.9-3.2-3-6.1-3c-3.6,0-5.5,2.2-5.5,4.9c0,2.4,1.3,3.5,4,4.3l3.8,1.1c4.2,1.3,6.8,3.4,6.8,7.4
		c0,4.9-3.7,8.3-9.7,8.3c-6.4,0-8.6-3.1-9.7-5.4l2.7-1.8c1,2.1,2.5,4.1,7,4.1c4,0,6-2,6-4.9c0-2.5-1.8-3.7-4.3-4.4l-3.8-1.1
		c-4.2-1.3-6.5-3.7-6.5-7.4c0-4.3,2.9-8.2,9.2-8.2c4.6,0,7.5,2,8.8,4.2L78.5,60z"/>
	<path class="st6" d="M111.7,62.1c0,4.1-2.5,7.1-5.5,10.3l-6.8,7.2h12.9v3H94.7V80l9.1-9.7c2.7-2.9,4.4-5.3,4.4-8.2
		c0-3-1.8-5.2-5-5.2c-3.3,0-5,2.2-5,5.5h-3.6c0-5,2.9-8.5,8.5-8.5C108.5,53.9,111.7,57.3,111.7,62.1z"/>
	<path class="st6" d="M129.2,57.3h-13.5v-3h17.5v2.6l-10.5,25.7h-3.9L129.2,57.3z"/>
	<path class="st6" d="M146.6,56.9c-4.4,0-6.5,4.4-6.5,11c1-1.4,3.7-3.3,7-3.3c5.6,0,8.8,3.6,8.8,9c0,5.1-3.1,9.5-9.6,9.5
		c-6.9,0-9.9-5.7-9.9-13.8c0-9.3,3.2-15.5,10.1-15.5c5.9,0,8.6,3.4,8.6,7.4h-3.5C151.7,58.6,149.8,56.9,146.6,56.9z M146.4,80
		c3.9,0,5.9-2.6,5.9-6.3c0-3.7-2-6-5.9-6c-2.8,0-5.1,1.9-6.1,3.9C140.3,75.9,142.1,80,146.4,80z"/>
	<path class="st6" d="M172.9,57.3h-13.5v-3h17.5v2.6l-10.5,25.7h-3.9L172.9,57.3z"/>
</g>
<g class="st5">
	<path class="st6" d="M33.9,133v-2.4c-1.1,1.3-3.3,2.8-6.4,2.8c-3.6,0-5.8-2-5.8-5.4c0-3.9,3.5-5.6,8.8-6.2l3.3-0.3v-1.9
		c0-2.2-0.9-3.4-4-3.4c-2.6,0-3.9,1-3.9,2.4v1.1h-3c-0.1-0.5-0.1-0.9-0.1-1.4c0-2.8,2.5-4.8,7.2-4.8s7.2,2,7.2,6.1V133H33.9z
		 M28.4,130.8c2.2,0,4.1-1.1,5.3-2.4v-4.6l-3.1,0.4c-3.4,0.5-5.5,1.5-5.5,3.7C25.1,129.7,26.2,130.8,28.4,130.8z"/>
	<path class="st6" d="M42.6,113.9h3.3v2.3c1.1-1.6,3.5-2.7,6.3-2.7c4.7,0,6.7,2.6,6.7,7.3V133h-3.4v-11.9c0-3-1-4.5-4.4-4.5
		c-2.3,0-4.2,1-5.2,2.2V133h-3.4v-19.1H42.6z"/>
	<path class="st6" d="M77,104.1h3.3v29h-3.2v-1.8c-1.1,1.3-3.1,2.2-5.6,2.2c-5.4,0-8.1-3.9-8.1-10s2.6-9.9,8.1-9.9
		c2.6,0,4.5,1,5.5,2.2V104.1z M72.2,130.3c2.4,0,4-1,4.8-2.3v-9.2c-0.8-1-2.3-2.3-4.8-2.3c-4.1,0-5.4,2.8-5.4,6.8
		C66.8,127.4,68.1,130.3,72.2,130.3z"/>
	<path class="st6" d="M101.5,133v-25l-7.8,3.2l-0.9-2.9l9.1-3.8h3.1V133H101.5z"/>
</g>
<g class="st5">
	<path class="st6" d="M127.7,112.5c0,4.1-2.5,7.1-5.5,10.3l-6.8,7.2h12.9v3h-17.6v-2.6l9.1-9.7c2.7-2.9,4.4-5.3,4.4-8.2
		c0-3-1.8-5.2-5-5.2c-3.3,0-5,2.2-5,5.5h-3.6c0-5,2.9-8.5,8.5-8.5C124.4,104.2,127.7,107.7,127.7,112.5z"/>
</g>
<g class="st5">
	<path class="st6" d="M152.6,126.9h-4v6.2H145v-6.2h-13.6v-2.7l13.4-19.5h3.7v19.2h4L152.6,126.9L152.6,126.9z M145,123.8v-14.2
		l-9.8,14.2H145z"/>
	<path class="st6" d="M165.1,133.5c-6.4,0-9.1-3.7-9.1-8h3.6c0,2.8,1.7,4.9,5.5,4.9c3.9,0,5.8-2.8,5.8-6.5c0-3.6-2-5.8-5.6-5.8
		c-2,0-3.7,0.8-5.1,1.7l-2.9-0.3l1.8-14.8h14.5v3H162l-1.1,8.8c1-0.5,2.9-1.5,5-1.5c4.9,0,8.6,2.9,8.6,8.9
		C174.5,129.2,171.3,133.5,165.1,133.5z"/>
</g>
<g class="st5">
	<path class="st6" d="M8.5,537.1v11.2H4.9v-28.4h9c6.5,0,9.5,3.3,9.5,8.6s-3,8.6-9.5,8.6L8.5,537.1L8.5,537.1z M8.5,534h5.2
		c4.5,0,6-2.3,6-5.5s-1.5-5.5-6-5.5H8.5V534z"/>
</g>
<g class="st5">
	<path class="st6" d="M50.2,519.9H55l3.7,28.4h-3.5l-3-24.1l-7.7,24.1h-3.9L33,524.2l-3.1,24.1h-3.5l3.8-28.4h5l7.4,23.8L50.2,519.9
		z"/>
	<path class="st6" d="M78.5,525.6c-1.2-1.9-3.2-3-6.1-3c-3.6,0-5.5,2.2-5.5,4.9c0,2.4,1.3,3.5,4,4.3l3.8,1.1
		c4.2,1.3,6.8,3.4,6.8,7.4c0,4.9-3.7,8.3-9.7,8.3c-6.4,0-8.6-3.1-9.7-5.4l2.7-1.8c1,2.1,2.5,4.1,7,4.1c4,0,6-2,6-4.9
		c0-2.5-1.8-3.7-4.3-4.4l-3.8-1.1c-4.2-1.3-6.5-3.7-6.5-7.4c0-4.3,2.9-8.2,9.2-8.2c4.6,0,7.5,2,8.8,4.2L78.5,525.6z"/>
	<path class="st6" d="M111.7,527.7c0,4.1-2.5,7.1-5.5,10.3l-6.8,7.2h12.9v3H94.7v-2.6l9.1-9.7c2.7-2.9,4.4-5.3,4.4-8.2
		c0-3-1.8-5.2-5-5.2c-3.3,0-5,2.2-5,5.5h-3.6c0-5,2.9-8.5,8.5-8.5C108.5,519.4,111.7,522.9,111.7,527.7z"/>
	<path class="st6" d="M129.2,522.9h-13.5v-3h17.5v2.6l-10.5,25.7h-3.9L129.2,522.9z"/>
	<path class="st6" d="M146.6,522.5c-4.4,0-6.5,4.4-6.5,11c1-1.4,3.7-3.3,7-3.3c5.6,0,8.8,3.6,8.8,9c0,5.1-3.1,9.5-9.6,9.5
		c-6.9,0-9.9-5.7-9.9-13.8c0-9.3,3.2-15.5,10.1-15.5c5.9,0,8.6,3.4,8.6,7.4h-3.5C151.7,524.2,149.8,522.5,146.6,522.5z M146.4,545.6
		c3.9,0,5.9-2.6,5.9-6.3s-2-6-5.9-6c-2.8,0-5.1,1.9-6.1,3.9C140.3,541.5,142.1,545.6,146.4,545.6z"/>
	<path class="st6" d="M172.9,522.9h-13.5v-3h17.5v2.6l-10.5,25.7h-3.9L172.9,522.9z"/>
</g>
<g class="st5">
	<path class="st6" d="M87.3,985.4h8.9c6,0,8.7,2.8,8.7,7.2c0,3.5-1.8,5.7-4.4,6.3c3,0.5,5.8,2.7,5.8,7.1c0,5.7-3.8,7.8-9.9,7.8h-9.2
		v-28.4L87.3,985.4L87.3,985.4z M95.7,997.6c4.1,0,5.5-1.9,5.5-4.7c0-2.7-1.5-4.4-5.5-4.4H91v9.1L95.7,997.6L95.7,997.6z
		 M96.2,1010.8c4.5,0,6.5-1.5,6.5-5c0-3.1-1.8-5.1-6.5-5.1H91v10.1H96.2z"/>
	<path class="st6" d="M114.4,984.9v23.5c0,1.6,0.4,2.4,1.9,2.4h1v3.1h-2c-3.3,0-4.4-2-4.4-5.1v-23.9H114.4z"/>
	<path class="st6" d="M132,1013.8v-2.4c-1.1,1.3-3.3,2.8-6.4,2.8c-3.6,0-5.8-2-5.8-5.4c0-3.9,3.5-5.6,8.8-6.2l3.3-0.3v-1.9
		c0-2.2-0.9-3.4-4-3.4c-2.6,0-3.9,1-3.9,2.4v1.1h-3c-0.1-0.5-0.1-0.9-0.1-1.4c0-2.8,2.5-4.8,7.2-4.8c4.7,0,7.2,2,7.2,6.1v13.4
		L132,1013.8L132,1013.8z M126.6,1011.6c2.2,0,4.1-1.1,5.3-2.4v-4.6l-3.1,0.4c-3.4,0.5-5.5,1.5-5.5,3.7
		C123.2,1010.5,124.4,1011.6,126.6,1011.6z"/>
	<path class="st6" d="M148.3,994.3c3.3,0,5.8,1.3,7.1,3.9l-2.4,1.7c-1-1.7-2.4-2.6-4.5-2.6c-3.8,0-5.3,3-5.3,7s1.5,7,5.3,7
		c2.1,0,3.5-0.9,4.5-2.6l2.4,1.7c-1.3,2.5-3.9,3.9-7.1,3.9c-6,0-8.5-4.3-8.5-9.9C139.8,998.7,142.3,994.3,148.3,994.3z"/>
	<path class="st6" d="M172,1013.8l-6-9.4l-3.1,2.9v6.5h-3.4v-29h3.4v18.4l8.9-8.6h4.3l-7.7,7.4l7.5,11.8L172,1013.8L172,1013.8z"/>
</g>
<g class="st5">
	<path class="st4" d="M92.3,1451l6.8,24.2l6.7-24.2h3.8l-8.1,28.4H97l-6.8-23.4l-6.8,23.4h-4.5l-8.1-28.4h3.8l6.7,24.2l6.8-24.2
		H92.3z"/>
	<path class="st4" d="M113.4,1450.4h3.4v11.9c1.1-1.4,3.4-2.5,6.2-2.5c4.7,0,6.7,2.6,6.7,7.3v12.2h-3.3v-11.9c0-3-1.1-4.5-4.4-4.5
		c-2.2,0-4.2,1-5.2,2.2v14.2h-3.4V1450.4z"/>
	<path class="st4" d="M134.4,1453.3c0-1.6,1-2.4,2.4-2.4c1.2,0,2.4,0.7,2.4,2.4c0,1.6-1.1,2.3-2.4,2.3
		C135.4,1455.6,134.4,1455,134.4,1453.3z M135.1,1460.3h3.4v19.1h-3.4V1460.3z"/>
	<path class="st4" d="M149.1,1473.9c0,1.8,0.8,2.9,2.6,2.9c0.8,0,1.8-0.3,2.6-0.6l0.3,2.9c-1,0.5-2.4,0.8-3.9,0.8
		c-3.5,0-5-2.2-5-5.6v-11.1H142v-2.5l3.7-0.4v-4.8l3.3-0.6v5.4h5.1v2.9H149L149.1,1473.9L149.1,1473.9L149.1,1473.9z"/>
	<path class="st4" d="M171.5,1474.9l1.7,2.3c-1.3,1.4-3.9,2.7-6.9,2.7c-6.3,0-8.8-4.2-8.8-10c0-5.5,2.6-9.9,8.4-9.9
		c5.4,0,7.7,3.9,7.7,8.1c0,0.9-0.1,2.2-0.3,3h-12.5c0.1,3.6,1.6,6,5.4,6C167.9,1476.9,170,1476.3,171.5,1474.9z M170.3,1468.3
		c0-0.3,0.1-0.6,0.1-0.8c0-2.9-1.7-4.8-4.5-4.8c-3.4,0-4.8,2.5-5,5.7L170.3,1468.3L170.3,1468.3z"/>
</g>
</svg>
